<?xml version="1.0" standalone="no"?>
<!DOCTYPE svg PUBLIC "-//W3C//DTD SVG 20010904//EN"
 "http://www.w3.org/TR/2001/REC-SVG-20010904/DTD/svg10.dtd">
<svg version="1.0" xmlns="http://www.w3.org/2000/svg"
 width="175.000000pt" height="175.000000pt" viewBox="0 0 175.000000 175.000000"
 preserveAspectRatio="xMidYMid meet">
<metadata>
Created by potrace 1.11, written by Peter Selinger 2001-2013
</metadata>
<g transform="translate(0.000000,175.000000) scale(0.100000,-0.100000)"
fill="#000000" stroke="none">
<path d="M655 1531 c-317 -76 -540 -368 -529 -696 3 -99 9 -132 39 -218 76
-219 266 -390 490 -442 79 -19 194 -24 202 -10 4 5 3 7 -1 4 -11 -10 -113 19
-170 48 -106 54 -187 127 -249 225 -77 120 -101 207 -100 353 0 93 4 123 27
190 48 141 125 246 240 326 175 124 401 146 594 58 58 -26 167 -97 160 -104
-2 -2 -38 14 -81 35 -306 149 -681 25 -831 -273 -20 -41 -42 -103 -50 -138
-12 -60 -14 -188 -3 -234 3 -11 8 -33 12 -50 15 -62 86 -183 141 -238 119
-121 258 -183 428 -193 l91 -5 -55 19 c-96 33 -161 72 -224 136 -97 98 -146
212 -150 351 -2 53 1 81 18 163 11 53 75 160 126 213 101 103 216 152 360 152
124 1 217 -34 321 -119 44 -36 117 -134 133 -178 3 -10 9 -17 11 -14 10 10
-39 130 -75 185 -46 70 -75 104 -126 144 -22 17 -39 34 -39 38 0 17 -83 106
-139 148 -164 124 -375 170 -571 124z"/>
<path d="M1150 1025 c0 -2 23 -14 50 -26 103 -44 179 -162 185 -287 7 -143
-63 -264 -190 -327 l-50 -25 46 5 c123 12 223 82 277 195 35 72 37 190 5 262
-41 90 -141 174 -228 192 -61 12 -95 16 -95 11z"/>
</g>
</svg>
